<svg width="160" height="160" viewBox="0 0 160 160" xmlns="http://www.w3.org/2000/svg" role="img" aria-label="Lehigh stained glass dome">
  <defs>
    <radialGradient id="domeCenter" cx="50%" cy="50%" r="60%">
      <stop offset="0%" stop-color="#f8cd5a"/>
      <stop offset="40%" stop-color="#f18b2d"/>
      <stop offset="70%" stop-color="#c43b32"/>
      <stop offset="100%" stop-color="#4c2f1b"/>
    </radialGradient>
    <linearGradient id="spokeGradient" x1="0%" y1="0%" x2="100%" y2="100%">
      <stop offset="0%" stop-color="#f6d68d"/>
      <stop offset="50%" stop-color="#2f1a10"/>
      <stop offset="100%" stop-color="#f6d68d"/>
    </linearGradient>
    <linearGradient id="gem1" x1="0%" y1="0%" x2="100%" y2="100%">
      <stop offset="0%" stop-color="#c9302c"/>
      <stop offset="100%" stop-color="#fba140"/>
    </linearGradient>
    <linearGradient id="gem2" x1="0%" y1="0%" x2="100%" y2="100%">
      <stop offset="0%" stop-color="#1e87d5"/>
      <stop offset="100%" stop-color="#47c8f5"/>
    </linearGradient>
    <linearGradient id="gem3" x1="0%" y1="0%" x2="100%" y2="100%">
      <stop offset="0%" stop-color="#f5c045"/>
      <stop offset="100%" stop-color="#f08a00"/>
    </linearGradient>
  </defs>
  <circle cx="80" cy="80" r="78" fill="#120905" stroke="#5c3b24" stroke-width="4"/>
  <circle cx="80" cy="80" r="58" fill="url(#spokeGradient)" opacity="0.06"/>
  <circle cx="80" cy="80" r="40" fill="#1e130a" stroke="#f6d68d" stroke-width="2"/>
  <circle cx="80" cy="80" r="24" fill="#2b1810" stroke="#f6d68d" stroke-width="2"/>
  <circle cx="80" cy="80" r="13" fill="url(#domeCenter)" stroke="#f8ecca" stroke-width="2"/>
  <g stroke="#f8ecca" stroke-width="3">
    <circle cx="80" cy="80" r="64" fill="none"/>
    <circle cx="80" cy="80" r="52" fill="none"/>
    <circle cx="80" cy="80" r="32" fill="none"/>
  </g>
  <g stroke="#f8ecca" stroke-width="2">
    <line x1="80" y1="16" x2="80" y2="40"/>
    <line x1="80" y1="120" x2="80" y2="144"/>
    <line x1="16" y1="80" x2="40" y2="80"/>
    <line x1="120" y1="80" x2="144" y2="80"/>
    <line x1="32" y1="32" x2="48" y2="48"/>
    <line x1="128" y1="32" x2="112" y2="48"/>
    <line x1="32" y1="128" x2="48" y2="112"/>
    <line x1="128" y1="128" x2="112" y2="112"/>
  </g>
  <g fill="none" stroke="#f8ecca" stroke-width="1">
    <path d="M80 30 L90 60 L130 60 L100 80 L130 100 L90 100 L80 130 L70 100 L30 100 L60 80 L30 60 L70 60 Z" fill="#28150d" opacity="0.25"/>
  </g>
  <g>
    <!-- decorative gems -->
    <circle cx="80" cy="30" r="5" fill="url(#gem1)" />
    <circle cx="80" cy="130" r="5" fill="url(#gem2)" />
    <circle cx="30" cy="80" r="5" fill="url(#gem3)" />
    <circle cx="130" cy="80" r="5" fill="url(#gem2)" />
    <circle cx="45" cy="45" r="4" fill="url(#gem2)" />
    <circle cx="115" cy="45" r="4" fill="url(#gem1)" />
    <circle cx="45" cy="115" r="4" fill="url(#gem3)" />
    <circle cx="115" cy="115" r="4" fill="url(#gem1)" />
  </g>
</svg>
